<?xml version="1.0" encoding="UTF-8" standalone="no"?>
<!-- Created with Inkscape (http://www.inkscape.org/) -->

<svg
   width="300"
   height="300"
   viewBox="0 0 79.375 79.375"
   version="1.1"
   id="svg37"
   inkscape:export-filename="../bg/32x32.png"
   inkscape:export-xdpi="10.24"
   inkscape:export-ydpi="10.24"
   inkscape:version="1.2.2 (1:1.2.2+202212051552+b0a8486541)"
   sodipodi:docname="pandas.svg"
   xmlns:inkscape="http://www.inkscape.org/namespaces/inkscape"
   xmlns:sodipodi="http://sodipodi.sourceforge.net/DTD/sodipodi-0.dtd"
   xmlns="http://www.w3.org/2000/svg"
   xmlns:svg="http://www.w3.org/2000/svg">
  <sodipodi:namedview
     id="namedview39"
     pagecolor="#ffffff"
     bordercolor="#666666"
     borderopacity="1.0"
     inkscape:pageshadow="2"
     inkscape:pageopacity="0.0"
     inkscape:pagecheckerboard="0"
     inkscape:document-units="mm"
     showgrid="false"
     units="px"
     width="300px"
     inkscape:zoom="1.3932941"
     inkscape:cx="249.05007"
     inkscape:cy="255.15073"
     inkscape:window-width="1866"
     inkscape:window-height="1016"
     inkscape:window-x="0"
     inkscape:window-y="0"
     inkscape:window-maximized="1"
     inkscape:current-layer="layer2"
     inkscape:showpageshadow="2"
     inkscape:deskcolor="#d1d1d1" />
  <defs
     id="defs34" />
  <g
     inkscape:groupmode="layer"
     id="layer2"
     inkscape:label="Layer 2" />
  <g
     inkscape:label="Layer 1"
     inkscape:groupmode="layer"
     id="layer1">
    <path
       style="fill:#000000;stroke-width:0.209854"
       d="M 69.271789,60.72891 C 68.678771,60.141256 68.529626,59.756322 68.129095,57.779754 67.810375,56.2069 67.53107,55.362871 67.2226,55.040421 66.953124,54.75878 66.666424,54.012597 66.49788,53.154503 66.167112,51.4704 64.640613,46.294609 64.192196,45.336679 c -0.173203,-0.369975 -0.503025,-1.187396 -0.732959,-1.816474 -0.229915,-0.629078 -0.715714,-1.892439 -1.079516,-2.807463 -0.363799,-0.915027 -0.803257,-2.059591 -0.976569,-2.543486 -0.417614,-1.165975 -2.695853,-5.492717 -3.614275,-6.864061 -0.401179,-0.599026 -0.976695,-1.254102 -1.27892,-1.455723 -1.136832,-0.758401 -1.760859,-1.478879 -1.760859,-2.033031 0,-0.365734 -0.226525,-0.743061 -0.665014,-1.107787 -0.365774,-0.304208 -1.129142,-0.94897 -1.6964,-1.43278 -1.745441,-1.48866 -3.023286,-1.926119 -7.156592,-2.449977 -3.293296,-0.417397 -5.265426,-0.267583 -8.693788,0.66037 -2.418743,0.654685 -5.224305,1.676044 -5.734331,2.087568 -0.183868,0.148362 -0.450516,0.26977 -0.592528,0.26977 -0.296251,0 -2.564683,1.389972 -2.883972,1.767167 -0.116968,0.138219 -0.784478,0.711388 -1.483302,1.273731 -0.698825,0.562345 -1.757467,1.535317 -2.352534,2.162163 -1.092747,1.151105 -4.251832,5.22938 -4.503787,5.814244 -0.07502,0.174083 -0.665993,1.111972 -1.313324,2.084183 -0.647333,0.972216 -1.243182,1.908038 -1.324106,2.079606 -0.08091,0.17154 -0.43406,0.779848 -0.784749,1.351737 -0.952564,1.553425 -2.610439,4.976739 -3.482519,7.19099 -1.321415,3.355128 -1.90498,5.700641 -1.936199,7.782143 -0.03642,2.442748 -0.01761,2.344325 -0.4784745,2.487938 -1.152913,0.359345 -2.35375,-1.20929 -2.35375,-3.07466 0,-2.160316 3.4334235,-11.122563 5.4715775,-14.282429 0.258191,-0.4003 0.76188,-1.289354 1.119257,-1.975622 0.357356,-0.686267 0.92461,-1.668878 1.260525,-2.183583 0.335886,-0.514701 0.714486,-1.169358 0.841283,-1.454798 0.126833,-0.285424 0.448104,-0.800139 0.714044,-1.143783 0.737931,-0.953593 1.231832,-1.976542 0.954317,-1.976542 -0.306002,0 -1.191581,0.932717 -1.993434,2.0995 -0.346195,0.50376 -0.939124,1.281418 -1.317618,1.728139 -0.378495,0.446714 -1.131664,1.66328 -1.673716,2.703481 -1.429897,2.743959 -1.888406,3.115554 -2.7246545,2.208109 -0.508454,-0.551736 -0.74294,-0.35733 -0.601486,0.498678 0.09513,0.575789 0.03261,0.747817 -0.342509,0.945069 -0.70906,0.372661 -1.351751,0.178878 -1.700716,-0.512826 -0.23758,-0.470896 -0.346195,-1.796781 -0.442899,-5.406966 -0.07136,-2.66369 -0.0454,-4.890176 0.05854,-5.024773 0.102688,-0.132923 0.507379,-1.209122 0.899294,-2.391543 1.036658,-3.127634 2.6920535,-6.231335 4.1205025,-7.725516 0.940167,-0.983434 2.583015,-1.925482 3.840487,-2.20222 1.928398,-0.4244 5.296227,0.444177 7.047051,1.817457 0.533914,0.418786 1.280872,0.948587 1.65991,1.177344 0.421522,0.254375 0.7657,0.678412 0.886236,1.091791 0.108372,0.371729 0.274365,0.675872 0.368798,0.675872 0.09445,0 0.533316,-0.241952 0.975252,-0.537681 3.320142,-2.221668 10.758658,-4.459044 14.810522,-4.454745 1.905249,0.0021 5.502398,0.391657 6.921875,0.749759 2.585959,0.652386 3.446707,1.154406 6.828631,3.982713 0.854788,0.714865 1.629638,1.2994 1.721885,1.298974 0.09227,-4.18e-4 0.4837,-0.189966 0.869903,-0.421192 l 0.702188,-0.420416 -0.437464,-0.695143 c -0.240613,-0.38233 -0.437462,-1.002729 -0.437462,-1.378664 0,-0.950311 1.149897,-1.973754 3.517356,-3.130558 l 1.88265,-0.919911 h 2.964711 c 2.872541,0 3.007521,0.01989 4.341784,0.640894 2.623634,1.22104 4.3284,3.652597 4.602579,6.564786 0.215729,2.291369 -0.89393,7.154666 -2.298682,10.074406 -0.335685,0.697753 -0.610376,1.360253 -0.610376,1.472208 0,0.111959 -0.218242,0.404915 -0.485003,0.65101 -0.428953,0.395747 -0.579471,0.421847 -1.302431,0.225775 -0.618183,-0.167595 -0.940105,-0.157164 -1.320739,0.04272 -0.780443,0.410191 -1.640191,0.03164 -1.71939,-0.757163 -0.05119,-0.510047 0.153871,-0.861122 1.107876,-1.896377 0.643897,-0.69875 1.399016,-1.32672 1.678043,-1.395493 0.672182,-0.16567 1.056144,-0.781711 1.707042,-2.738794 1.097218,-3.299041 1.228684,-6.981059 0.297262,-8.324412 -0.537099,-0.774613 -0.898211,-0.891836 -1.186887,-0.385271 -0.102558,0.179988 -0.409466,0.437321 -0.682037,0.571889 -0.64303,0.31748 -0.79211,0.764575 -0.254929,0.764575 0.505141,0 0.808209,0.332936 1.005393,1.104469 0.115287,0.451079 0.03877,0.697382 -0.340188,1.09338 -0.377263,0.394384 -0.431552,0.567515 -0.237647,0.757938 0.635113,0.623705 0.273749,1.241597 -1.99838,3.416821 -1.237334,1.184566 -2.333218,2.15376 -2.435297,2.15376 -0.102084,0 -0.185597,0.140369 -0.185597,0.311936 0,0.527164 0.263671,0.356114 1.800007,-1.167729 2.289877,-2.271262 3.435187,-2.645964 3.74067,-1.223814 0.149304,0.694956 0.101787,0.77428 -1.050985,1.754605 -0.664035,0.564709 -1.985527,1.813417 -2.936651,2.774902 -1.437967,1.453635 -1.847794,1.753649 -2.432539,1.78072 -0.654503,0.03034 -0.717112,-0.02512 -0.903782,-0.799281 -0.247658,-1.027028 -0.205164,-0.971446 -0.621704,-0.814486 -0.467821,0.176302 -0.440159,0.462165 0.171964,1.777168 0.285976,0.614306 0.799384,1.865578 1.140978,2.780601 0.341598,0.915026 0.923159,2.459131 1.292356,3.431342 0.980121,2.580957 1.655613,4.462524 2.277103,6.34279 0.302478,0.915023 0.724981,2.057399 0.93897,2.538617 0.213968,0.481213 0.335616,1.011759 0.270258,1.178972 -0.06536,0.167234 0.02087,0.522152 0.191108,0.788743 0.170465,0.266605 0.428148,0.999414 0.572655,1.628496 0.144506,0.629074 0.488768,1.69801 0.765011,2.375402 0.607368,1.489352 0.606728,1.473251 0.07873,1.991756 -0.591009,0.580393 -0.994582,0.521557 -1.783218,-0.25995 z M 10.048952,37.98829 C 9.5600665,37.409807 9.2192945,37.655391 9.2263035,38.58115 l 0.0064,0.88383 0.530935,-0.592856 C 10.18105,38.406022 10.24199,38.21705 10.048637,37.98829 Z m 8.911853,-5.44205 c 0,-0.194826 1.404355,-1.814973 2.911766,-3.359214 1.043456,-1.068945 1.374433,-1.679756 0.910199,-1.679756 -0.236015,0 -1.704311,1.445374 -1.704311,1.67773 0,0.08701 -0.346956,0.509068 -0.77105,0.937905 -0.832612,0.841957 -1.770135,2.115426 -1.770135,2.404429 0,0.09842 0.0953,0.178944 0.211752,0.178944 0.116459,0 0.211754,-0.07201 0.211754,-0.160028 z m 45.550111,-3.448223 c 1.608624,-1.355247 2.477787,-2.214627 2.239838,-2.214627 -0.599184,0 -4.166347,2.821487 -4.166347,3.295418 0,0.443417 0.351207,0.246386 1.926509,-1.080791 z M 24.188342,26.847142 c 0.617308,-0.569511 0.62062,-0.795595 0.01172,-0.795595 -0.50369,0 -1.106728,0.708145 -0.892675,1.048262 0.184521,0.293184 0.336644,0.249549 0.881026,-0.25268 z m -4.96777,-2.555393 c 0.770991,-0.0062 1.072746,-0.108265 1.313479,-0.444848 0.297555,-0.416009 0.263248,-0.459657 -0.714565,-0.90941 -0.830191,-0.381854 -1.290908,-0.455934 -2.403095,-0.386388 -0.756795,0.04733 -1.52707,0.209175 -1.711724,0.35967 -0.300031,0.244529 -0.262951,0.349883 0.348422,0.990508 0.616962,0.646465 0.756973,0.701233 1.425343,0.557606 0.407625,-0.0876 1.191608,-0.162807 1.742127,-0.167138 z m 42.940302,-0.632112 c 0.459406,-0.380517 2.051608,-1.143412 2.386388,-1.143412 0.157098,0 0.470563,-0.147087 0.696675,-0.32686 0.389084,-0.309395 0.372866,-0.320515 -0.303653,-0.207969 -1.080897,0.179824 -3.106799,1.134207 -3.66259,1.725412 l -0.493307,0.524755 0.529414,-0.154417 c 0.291163,-0.08491 0.672356,-0.272802 0.84706,-0.41752 z m 6.352954,-1.55933 c 0,-0.257703 -0.607993,-0.419586 -0.746892,-0.198869 -0.191662,0.304564 0.08697,0.611009 0.436042,0.479484 0.170955,-0.06443 0.310861,-0.190717 0.310861,-0.280596 z M 40.125829,51.662119 c -0.517809,-0.325798 -1.122996,-0.793738 -1.344873,-1.039802 -0.221862,-0.246092 -0.497755,-0.447393 -0.613076,-0.447393 -0.115287,0 -0.92105,0.336039 -1.790526,0.746708 -1.235106,0.58339 -1.735076,0.718294 -2.28593,0.61681 -0.776646,-0.143066 -1.789425,-1.154648 -1.789425,-1.787286 0,-0.49669 0.782549,-1.221612 1.478147,-1.369306 0.961795,-0.204187 1.063037,-0.268858 1.063037,-0.678676 0,-0.22284 -0.195152,-0.852314 -0.433681,-1.398784 -0.263704,-0.604218 -0.408949,-1.324057 -0.370597,-1.836889 0.05896,-0.788062 0.109094,-0.847652 0.765172,-0.909495 0.386154,-0.03623 0.829678,0.0376 0.985649,0.164958 0.189739,0.154583 0.903625,0.186935 2.156757,0.09751 2.272017,-0.162013 2.940686,0.04413 3.363502,1.038106 0.274922,0.646134 0.266312,0.806167 -0.0872,1.615963 -0.215795,0.494342 -0.54828,1.025911 -0.738898,1.181269 -0.585779,0.477415 -0.416326,1.169459 0.44536,1.818549 0.435569,0.328137 1.078798,0.690155 1.429416,0.804538 0.706432,0.230406 0.920218,0.846602 0.537445,1.548973 -0.350592,0.643294 -1.603688,0.568305 -2.770276,-0.165801 z M 24.360816,45.30814 c -1.438232,-0.623444 -1.742428,-1.628431 -1.053247,-3.47964 0.18589,-0.499287 0.428289,-1.198982 0.538637,-1.554867 0.226558,-0.730544 3.757858,-4.202332 4.826196,-4.744866 1.770423,-0.899075 3.413693,-0.745358 4.171351,0.390195 0.43822,0.656772 0.215924,3.192697 -0.383695,4.377862 -1.099445,2.172985 -3.692656,4.237301 -6.299017,5.014322 -1.135525,0.338532 -1.011853,0.338718 -1.800216,-0.003 z m 26.104972,-0.109639 c -1.844193,-0.712429 -3.929184,-2.92586 -4.246762,-4.508374 -0.07136,-0.35558 -0.425782,-1.281214 -0.78759,-2.057006 -0.818092,-1.754105 -0.971262,-2.451698 -0.60061,-2.735386 0.155625,-0.119105 0.805752,-0.380348 1.444718,-0.580525 1.25437,-0.392965 2.11407,-0.351613 4.725493,0.227308 1.273272,0.282258 1.562554,0.443599 2.496069,1.391995 1.216674,1.236062 2.734349,4.024031 2.734349,5.02299 0,0.550314 -0.177019,0.821178 -0.935645,1.431643 -0.514598,0.414091 -1.010358,0.752908 -1.101679,0.752908 -0.09131,0 -0.456475,0.271073 -0.811424,0.602379 -0.85984,0.802546 -1.680428,0.929716 -2.916919,0.452032 z"
       id="path39" />
  </g>
</svg>
